<svg width="184" height="147" viewBox="0 0 184 147" fill="none" xmlns="http://www.w3.org/2000/svg">
<path d="M0 140C0 143.837 41.1611 147 91.9592 147C142.757 147 184 143.837 184 140C184 136.163 142.757 133 91.9592 133C41.1611 133 0 136.163 0 140Z" fill="#F8FAFD"/>
<path d="M45 77.9999H135V141.512C135 141.642 134.944 141.766 134.844 141.857C134.745 141.948 134.609 142 134.468 142H45.5315C45.3906 142 45.2554 141.948 45.1557 141.857C45.056 141.766 45 141.642 45 141.512V77.9999Z" fill="#CAD8EC"/>
<path d="M112.587 50.8047H70.84L45.3281 77.8627H135.11L112.587 50.8047Z" fill="#97B2DB"/>
<path d="M53.8312 39.9785L70.8391 50.8018L45.3272 77.8598L26 63.1711L53.8312 39.9785Z" fill="#CAD8EC"/>
<path d="M129.594 39.9785L112.586 50.8018L135.109 77.8598L157.425 63.1711L129.594 39.9785Z" fill="#CAD8EC"/>
<path d="M78.3872 39.9955C78.8671 39.768 79.2405 39.3637 79.4294 38.8673C79.6182 38.3708 79.6079 37.8206 79.4005 37.3316L71.7494 19.2901C71.641 19.0346 71.4821 18.8036 71.2822 18.611C71.0822 18.4185 70.8454 18.2683 70.586 18.1697C70.3266 18.071 70.0498 18.0258 69.7725 18.0368C69.4951 18.0478 69.2229 18.1148 68.972 18.2337L67.498 18.9326C67.2472 19.0516 67.023 19.22 66.839 19.4277C66.6549 19.6355 66.5148 19.8784 66.427 20.1417C66.3392 20.405 66.3056 20.6834 66.3281 20.96C66.3506 21.2367 66.4289 21.5059 66.5581 21.7516L75.6832 39.0939C75.9305 39.564 76.35 39.9203 76.8539 40.0883C77.3578 40.2564 77.9072 40.2231 78.3872 39.9955Z" fill="#97B2DB"/>
<path d="M104.982 42.2318C105.938 42.7842 107.279 42.2773 108.023 41.0824L121.233 19.8676C122.022 18.6002 121.835 17.0556 120.821 16.4696L119.409 15.6531C118.395 15.0671 116.963 15.6756 116.259 16.9917L104.461 39.023C103.797 40.2639 104.027 41.6793 104.982 42.2318Z" fill="#97B2DB"/>
<path d="M86.5264 24.7809C86.4179 24.6628 86.3642 24.5206 86.3654 24.3543L86.3698 23.1487C86.3743 21.885 86.6114 20.7979 87.0809 19.8873C87.5505 18.9768 88.1122 18.2356 88.7662 17.6638C89.4254 17.0915 90.2862 16.4297 91.3488 15.6785C92.5332 14.9001 93.3997 14.2129 93.9481 13.617C94.4919 13.0269 94.7667 12.3161 94.7724 11.4845C94.7724 10.5868 94.4468 9.87247 93.7958 9.34141C93.14 8.81629 92.2684 8.54533 91.1807 8.52853C89.9946 8.50916 89.0512 8.78465 88.3505 9.35499C87.6447 9.92577 87.2909 10.6795 87.2891 11.616L87.29 12.1645C87.2906 12.5302 87.1018 12.7099 86.7237 12.7038L80.0939 12.2962C79.9384 12.293 79.8057 12.2242 79.6958 12.0896C79.5859 11.955 79.5315 11.8046 79.5327 11.6382L79.5352 11.4884C79.5399 9.38799 80.0446 7.53799 81.0494 5.93844C82.0486 4.33384 83.4442 3.09669 85.2362 2.22699C87.0333 1.35685 89.0844 0.941284 91.3894 0.980288C93.6632 1.01646 95.6491 1.4626 97.3472 2.31873C99.0406 3.1808 100.344 4.37856 101.258 5.91201C102.171 7.44547 102.627 9.21247 102.624 11.213C102.619 12.7095 102.366 13.9808 101.867 15.0269C101.362 16.0679 100.758 16.9153 100.054 17.569C99.3509 18.2282 98.4549 18.9318 97.3661 19.6798C96.2722 20.4282 95.4578 21.0887 94.9228 21.6613C94.3935 22.239 94.1285 22.9435 94.128 23.7747L94.1263 24.473C94.1256 24.6448 94.0707 24.7881 93.9617 24.9028C93.8526 25.0175 93.7204 25.0732 93.565 25.0701L86.9223 24.9627C86.7668 24.9596 86.6349 24.8989 86.5264 24.7809ZM87.0556 35.3904C86.2962 34.564 85.9186 33.5161 85.9227 32.2469C85.9239 30.9447 86.3017 29.9008 87.0562 29.1152C87.8051 28.3246 88.77 27.9392 89.951 27.959C91.1371 27.9784 92.1094 28.3958 92.8678 29.2113C93.6309 30.0208 94.0118 31.0766 94.0106 32.3789C94.0032 33.6096 93.6162 34.6377 92.8496 35.4631C92.0877 36.2825 91.1137 36.6825 89.9276 36.6632C88.7728 36.6466 87.8154 36.2224 87.0556 35.3904Z" fill="#97B2DB"/>
</svg>
