<svg width="24" height="25" viewBox="0 0 24 25" fill="none" xmlns="http://www.w3.org/2000/svg">
<path d="M13.0242 4.85516H10.5555C10.3251 4.85516 10.0947 5.08558 10.0947 5.316C10.0947 5.54641 10.3251 5.7439 10.5555 5.7439H13.0242C13.2547 5.7439 13.4522 5.54641 13.4522 5.316C13.4192 5.05267 13.2217 4.85516 13.0242 4.85516Z" fill="#2B62B4"/>
<path d="M13.0242 7.35712H10.5555C10.3251 7.35712 10.0947 7.55462 10.0947 7.78503C10.0947 8.01544 10.3251 8.21293 10.5555 8.21293H13.0242C13.2547 8.21293 13.4522 8.01544 13.4522 7.78503C13.4192 7.5217 13.2217 7.35712 13.0242 7.35712Z" fill="#2B62B4"/>
<path d="M13.0242 9.85907H10.5555C10.3251 9.85907 10.0947 10.0566 10.0947 10.287C10.0947 10.5174 10.3251 10.7149 10.5555 10.7149H13.0242C13.2547 10.7149 13.4522 10.5174 13.4522 10.287C13.4192 10.0236 13.2217 9.85907 13.0242 9.85907Z" fill="#2B62B4"/>
<path d="M13.0242 12.36H10.5555C10.3251 12.36 10.0947 12.5575 10.0947 12.788C10.0947 13.0184 10.3251 13.2159 10.5555 13.2159H13.0242C13.2547 13.2159 13.4522 13.0184 13.4522 12.788C13.4192 12.5246 13.2217 12.36 13.0242 12.36Z" fill="#2B62B4"/>
<path d="M13.0242 14.8288H10.5555C10.3251 14.8288 10.0947 15.0263 10.0947 15.2567C10.0947 15.4871 10.3251 15.7175 10.5555 15.7175H13.0242C13.2547 15.7175 13.4522 15.4871 13.4522 15.2567C13.4522 15.0263 13.2217 14.8288 13.0242 14.8288Z" fill="#2B62B4"/>
<path d="M13.0242 17.3307H10.5555C10.3251 17.3307 10.0947 17.5282 10.0947 17.7587C10.0947 17.9891 10.3251 18.1866 10.5555 18.1866H13.0242C13.2547 18.1866 13.4522 17.9891 13.4522 17.7587C13.4192 17.4953 13.2217 17.3307 13.0242 17.3307Z" fill="#2B62B4"/>
<path d="M13.0242 19.8327H10.5555C10.3251 19.8327 10.0947 20.0302 10.0947 20.2606C10.0947 20.491 10.3251 20.6885 10.5555 20.6885H13.0242C13.2547 20.6885 13.4522 20.491 13.4522 20.2606C13.4192 19.9973 13.2217 19.8327 13.0242 19.8327Z" fill="#2B62B4"/>
<path fill-rule="evenodd" clip-rule="evenodd" d="M21.7798 14.8289V22.3008C21.7798 22.5312 21.5823 22.7287 21.3519 22.7287C20.2328 22.7287 3.34685 22.7287 2.22771 22.7287C1.9973 22.7287 1.7998 22.5312 1.7998 22.3008V13.5781C1.7998 13.4464 1.83272 13.3148 1.93147 13.2489L4.46599 11.1752C4.59766 11.0436 4.79515 11.0436 4.95973 11.1423L7.26385 12.7881V3.60454H6.83595C6.57262 3.60454 6.37513 3.40704 6.37513 3.17663C6.37513 2.94622 6.57262 2.74872 6.83595 2.74872C7.52719 2.74872 16.3816 2.74872 16.7766 2.74872C17.007 2.74872 17.2045 2.94622 17.2045 3.17663C17.2045 3.40704 17.007 3.60454 16.7766 3.60454H16.3487V14.401H21.3519C21.5494 14.401 21.7469 14.5985 21.7798 14.8289ZM2.6227 21.8729H7.19803V13.7756L4.72933 11.9981L2.6227 13.7756V21.8729ZM8.05385 21.8729H15.5258C15.5258 21.3463 15.5258 4.13119 15.5258 3.60454H8.05385C8.05385 4.92118 8.05385 21.0829 8.05385 21.8729ZM20.924 21.8729V15.2239H16.3487V21.8729H20.924Z" fill="#2B62B4"/>
<path d="M5.55274 14.0063H4.30193C4.07152 14.0063 3.87402 14.2038 3.87402 14.4343C3.87402 14.6647 4.07152 14.8622 4.30193 14.8622H5.55274C5.78315 14.8622 5.98065 14.6647 5.98065 14.4343C5.98065 14.2038 5.75024 14.0063 5.55274 14.0063Z" fill="#2B62B4"/>
<path d="M5.55274 16.903H4.30193C4.07152 16.903 3.87402 17.1005 3.87402 17.3309C3.87402 17.5613 4.07152 17.7588 4.30193 17.7588H5.55274C5.78315 17.7588 5.98065 17.5613 5.98065 17.3309C5.98065 17.1005 5.75024 16.903 5.55274 16.903Z" fill="#2B62B4"/>
<path d="M5.55274 19.8327H4.30193C4.07152 19.8327 3.87402 20.0302 3.87402 20.2606C3.87402 20.491 4.07152 20.6885 4.30193 20.6885H5.55274C5.78315 20.6885 5.98065 20.491 5.98065 20.2606C5.94773 19.9973 5.75024 19.8327 5.55274 19.8327Z" fill="#2B62B4"/>
<path d="M19.6732 16.903H17.5995C17.3691 16.903 17.1387 17.1005 17.1387 17.3309C17.1387 17.5613 17.3691 17.7588 17.5995 17.7588H19.6732C19.9036 17.7588 20.1011 17.5613 20.1011 17.3309C20.1011 17.1005 19.8707 16.903 19.6732 16.903Z" fill="#2B62B4"/>
<path d="M19.6732 19.404H17.5995C17.3691 19.404 17.1387 19.6015 17.1387 19.8319C17.1387 20.0623 17.3691 20.2598 17.5995 20.2598H19.6732C19.9036 20.2598 20.1011 20.0623 20.1011 19.8319C20.0682 19.6015 19.8707 19.404 19.6732 19.404Z" fill="#2B62B4"/>
</svg>
