<svg width="15" height="15" viewBox="0 0 15 15" fill="none" xmlns="http://www.w3.org/2000/svg">
<path d="M8.19382 2.61255H6.68662C6.54594 2.61255 6.40527 2.75323 6.40527 2.8939C6.40527 3.03457 6.54594 3.15515 6.68662 3.15515H8.19382C8.3345 3.15515 8.45508 3.03457 8.45508 2.8939C8.43498 2.73313 8.3144 2.61255 8.19382 2.61255Z" fill="#2B62B4"/>
<path d="M8.19382 4.14001H6.68662C6.54594 4.14001 6.40527 4.26059 6.40527 4.40127C6.40527 4.54194 6.54594 4.66251 6.68662 4.66251H8.19382C8.3345 4.66251 8.45508 4.54194 8.45508 4.40127C8.43498 4.2405 8.3144 4.14001 8.19382 4.14001Z" fill="#2B62B4"/>
<path d="M8.19382 5.6676H6.68662C6.54594 5.6676 6.40527 5.78818 6.40527 5.92885C6.40527 6.06952 6.54594 6.1901 6.68662 6.1901H8.19382C8.3345 6.1901 8.45508 6.06952 8.45508 5.92885C8.43498 5.76808 8.3144 5.6676 8.19382 5.6676Z" fill="#2B62B4"/>
<path d="M8.19382 7.19458H6.68662C6.54594 7.19458 6.40527 7.31515 6.40527 7.45583C6.40527 7.5965 6.54594 7.71708 6.68662 7.71708H8.19382C8.3345 7.71708 8.45508 7.5965 8.45508 7.45583C8.43498 7.29506 8.3144 7.19458 8.19382 7.19458Z" fill="#2B62B4"/>
<path d="M8.19382 8.70166H6.68662C6.54594 8.70166 6.40527 8.82223 6.40527 8.96291C6.40527 9.10358 6.54594 9.24425 6.68662 9.24425H8.19382C8.3345 9.24425 8.45508 9.10358 8.45508 8.96291C8.45508 8.82223 8.3144 8.70166 8.19382 8.70166Z" fill="#2B62B4"/>
<path d="M8.19382 10.2292H6.68662C6.54594 10.2292 6.40527 10.3498 6.40527 10.4905C6.40527 10.6312 6.54594 10.7517 6.68662 10.7517H8.19382C8.3345 10.7517 8.45508 10.6312 8.45508 10.4905C8.43498 10.3297 8.3144 10.2292 8.19382 10.2292Z" fill="#2B62B4"/>
<path d="M8.19382 11.7567H6.68662C6.54594 11.7567 6.40527 11.8773 6.40527 12.018C6.40527 12.1586 6.54594 12.2792 6.68662 12.2792H8.19382C8.3345 12.2792 8.45508 12.1586 8.45508 12.018C8.43498 11.8572 8.3144 11.7567 8.19382 11.7567Z" fill="#2B62B4"/>
<path fill-rule="evenodd" clip-rule="evenodd" d="M13.5391 8.70181V13.2636C13.5391 13.4043 13.4186 13.5249 13.2779 13.5249C12.5946 13.5249 2.28533 13.5249 1.60207 13.5249C1.46139 13.5249 1.34082 13.4043 1.34082 13.2636V7.93815C1.34082 7.85777 1.36092 7.77738 1.4212 7.73719L2.9686 6.47114C3.04898 6.39075 3.16956 6.39075 3.27004 6.45104L4.67677 7.45585V1.84904H4.41552C4.25475 1.84904 4.13418 1.72846 4.13418 1.58779C4.13418 1.44712 4.25475 1.32654 4.41552 1.32654C4.83754 1.32654 10.2434 1.32654 10.4845 1.32654C10.6252 1.32654 10.7458 1.44712 10.7458 1.58779C10.7458 1.72846 10.6252 1.84904 10.4845 1.84904H10.2233V8.44055H13.2779C13.3985 8.44055 13.519 8.56113 13.5391 8.70181ZM1.84322 13.0024H4.63658V8.05873L3.12937 6.97354L1.84322 8.05873V13.0024ZM5.15908 13.0024H9.72089C9.72089 12.6808 9.72089 2.17058 9.72089 1.84904H5.15908C5.15908 2.65288 5.15908 12.5201 5.15908 13.0024ZM13.0166 13.0024V8.94296H10.2233V13.0024H13.0166Z" fill="#2B62B4"/>
<path d="M3.63232 8.19958H2.86867C2.728 8.19958 2.60742 8.32016 2.60742 8.46083C2.60742 8.6015 2.728 8.72208 2.86867 8.72208H3.63232C3.773 8.72208 3.89357 8.6015 3.89357 8.46083C3.89357 8.32016 3.7529 8.19958 3.63232 8.19958Z" fill="#2B62B4"/>
<path d="M3.63232 9.96802H2.86867C2.728 9.96802 2.60742 10.0886 2.60742 10.2293C2.60742 10.3699 2.728 10.4905 2.86867 10.4905H3.63232C3.773 10.4905 3.89357 10.3699 3.89357 10.2293C3.89357 10.0886 3.7529 9.96802 3.63232 9.96802Z" fill="#2B62B4"/>
<path d="M3.63232 11.7567H2.86867C2.728 11.7567 2.60742 11.8773 2.60742 12.018C2.60742 12.1586 2.728 12.2792 2.86867 12.2792H3.63232C3.773 12.2792 3.89357 12.1586 3.89357 12.018C3.87347 11.8572 3.7529 11.7567 3.63232 11.7567Z" fill="#2B62B4"/>
<path d="M12.2535 9.96802H10.9874C10.8467 9.96802 10.7061 10.0886 10.7061 10.2293C10.7061 10.3699 10.8467 10.4905 10.9874 10.4905H12.2535C12.3941 10.4905 12.5147 10.3699 12.5147 10.2293C12.5147 10.0886 12.374 9.96802 12.2535 9.96802Z" fill="#2B62B4"/>
<path d="M12.2535 11.495H10.9874C10.8467 11.495 10.7061 11.6156 10.7061 11.7562C10.7061 11.8969 10.8467 12.0175 10.9874 12.0175H12.2535C12.3941 12.0175 12.5147 11.8969 12.5147 11.7562C12.4946 11.6156 12.374 11.495 12.2535 11.495Z" fill="#2B62B4"/>
</svg>
