<svg width="21" height="22" viewBox="0 0 21 22" fill="none" xmlns="http://www.w3.org/2000/svg">
<path d="M16.4055 8.99587V8.37935C16.4055 4.9942 13.7615 2.25 10.5 2.25C7.23849 2.25 4.59451 4.9942 4.59451 8.37935V8.99587C4.59451 9.73576 4.3835 10.4591 3.98807 11.0747L3.01906 12.5833C2.13397 13.9613 2.80967 15.8343 4.34907 16.2701C8.37615 17.41 12.6239 17.41 16.6509 16.2701C18.1903 15.8343 18.866 13.9613 17.9809 12.5833L17.0119 11.0747C16.6165 10.4591 16.4055 9.73576 16.4055 8.99587Z" stroke="#2B62B4" strokeWidth="1.3125"/>
<path d="M6.5625 17.125C7.13565 18.6543 8.68215 19.75 10.5 19.75C12.3179 19.75 13.8644 18.6543 14.4375 17.125" stroke="#2B62B4" strokeWidth="1.3125" strokeLinecap="round"/>
<circle cx="15.5281" cy="5.2381" r="4.284" fill="white"/>
<circle cx="15.5287" cy="5.23868" r="2.142" fill="#F4462C"/>
</svg>
