<svg width="25" height="24" viewBox="0 0 25 24" fill="none" xmlns="http://www.w3.org/2000/svg">
<path d="M9.46173 18.9108L9.92605 18.3218L9.46173 18.9108ZM12.5 5.50057L11.9596 6.02067C12.101 6.16757 12.2961 6.25057 12.5 6.25057C12.7039 6.25057 12.899 6.16757 13.0404 6.02067L12.5 5.50057ZM15.5383 18.9108L16.0026 19.4998L15.5383 18.9108ZM9.46173 18.9108L9.92605 18.3218C8.41039 17.127 6.75307 15.9602 5.43829 14.4797C4.14922 13.0282 3.25 11.3344 3.25 9.13704H2.5H1.75C1.75 11.8026 2.8605 13.836 4.31672 15.4757C5.74723 17.0865 7.57077 18.3752 8.99742 19.4998L9.46173 18.9108ZM2.5 9.13704H3.25C3.25 6.98617 4.46537 5.18246 6.12436 4.42413C7.73607 3.68741 9.90166 3.88251 11.9596 6.02067L12.5 5.50057L13.0404 4.98047C10.5985 2.44346 7.76409 2.02533 5.50076 3.0599C3.28471 4.07286 1.75 6.42497 1.75 9.13704H2.5ZM9.46173 18.9108L8.99742 19.4998C9.50965 19.9036 10.0595 20.3342 10.6168 20.6599C11.1739 20.9854 11.8096 21.2499 12.5 21.2499V20.4999V19.7499C12.1904 19.7499 11.8261 19.6292 11.3736 19.3648C10.9213 19.1005 10.4521 18.7365 9.92605 18.3218L9.46173 18.9108ZM15.5383 18.9108L16.0026 19.4998C17.4292 18.3752 19.2528 17.0865 20.6833 15.4757C22.1395 13.836 23.25 11.8026 23.25 9.13704H22.5H21.75C21.75 11.3344 20.8508 13.0282 19.5617 14.4797C18.2469 15.9602 16.5896 17.127 15.074 18.3218L15.5383 18.9108ZM22.5 9.13704H23.25C23.25 6.42497 21.7153 4.07286 19.4992 3.0599C17.2359 2.02533 14.4015 2.44346 11.9596 4.98047L12.5 5.50057L13.0404 6.02067C15.0983 3.88251 17.2639 3.68741 18.8756 4.42413C20.5346 5.18246 21.75 6.98617 21.75 9.13704H22.5ZM15.5383 18.9108L15.074 18.3218C14.5479 18.7365 14.0787 19.1005 13.6264 19.3648C13.1739 19.6292 12.8096 19.7499 12.5 19.7499V20.4999V21.2499C13.1904 21.2499 13.8261 20.9854 14.3832 20.6599C14.9405 20.3342 15.4903 19.9036 16.0026 19.4998L15.5383 18.9108Z" fill="#8A8A8A"/>
</svg>
