<svg width="25" height="24" viewBox="0 0 25 24" fill="none" xmlns="http://www.w3.org/2000/svg">
<path d="M3 6.5C3 4.61438 3 3.67157 3.58579 3.08579C4.17157 2.5 5.11438 2.5 7 2.5C8.88562 2.5 9.82843 2.5 10.4142 3.08579C11 3.67157 11 4.61438 11 6.5C11 8.38562 11 9.32843 10.4142 9.91421C9.82843 10.5 8.88562 10.5 7 10.5C5.11438 10.5 4.17157 10.5 3.58579 9.91421C3 9.32843 3 8.38562 3 6.5Z" fill="#2B62B4" stroke="#2B62B4" strokeWidth="1.5"/>
<path d="M14 17.5C14 15.6144 14 14.6716 14.5858 14.0858C15.1716 13.5 16.1144 13.5 18 13.5C19.8856 13.5 20.8284 13.5 21.4142 14.0858C22 14.6716 22 15.6144 22 17.5C22 19.3856 22 20.3284 21.4142 20.9142C20.8284 21.5 19.8856 21.5 18 21.5C16.1144 21.5 15.1716 21.5 14.5858 20.9142C14 20.3284 14 19.3856 14 17.5Z" fill="#2B62B4" stroke="#2B62B4" strokeWidth="1.5"/>
<path d="M3 17.5C3 15.6144 3 14.6716 3.58579 14.0858C4.17157 13.5 5.11438 13.5 7 13.5C8.88562 13.5 9.82843 13.5 10.4142 14.0858C11 14.6716 11 15.6144 11 17.5C11 19.3856 11 20.3284 10.4142 20.9142C9.82843 21.5 8.88562 21.5 7 21.5C5.11438 21.5 4.17157 21.5 3.58579 20.9142C3 20.3284 3 19.3856 3 17.5Z" fill="#2B62B4" stroke="#2B62B4" strokeWidth="1.5"/>
<path d="M14 6.5C14 4.61438 14 3.67157 14.5858 3.08579C15.1716 2.5 16.1144 2.5 18 2.5C19.8856 2.5 20.8284 2.5 21.4142 3.08579C22 3.67157 22 4.61438 22 6.5C22 8.38562 22 9.32843 21.4142 9.91421C20.8284 10.5 19.8856 10.5 18 10.5C16.1144 10.5 15.1716 10.5 14.5858 9.91421C14 9.32843 14 8.38562 14 6.5Z" fill="#2B62B4" stroke="#2B62B4" strokeWidth="1.5"/>
</svg>
