<svg width="23" height="24" viewBox="0 0 23 24" fill="none" xmlns="http://www.w3.org/2000/svg">
<path d="M11.5 1.25C12.2081 1.25 12.8518 1.45257 13.5498 1.79199C14.2324 2.12394 15.0222 2.61538 16.0117 3.22949L18.0117 4.4707C18.9479 5.05174 19.6963 5.51559 20.2715 5.95605C20.8601 6.40685 21.3121 6.86627 21.6387 7.46289C21.9645 8.05825 22.1113 8.69167 22.1816 9.44043C22.2506 10.1742 22.25 11.0738 22.25 12.2041V13.7246C22.25 15.6544 22.2518 17.1751 22.0977 18.3613C21.941 19.5667 21.611 20.5402 20.8672 21.3096C20.12 22.0823 19.1692 22.4281 17.9922 22.5918C16.8393 22.7521 15.3636 22.75 13.5 22.75H9.5C7.63643 22.75 6.16067 22.7521 5.00781 22.5918C3.83081 22.4281 2.87999 22.0823 2.13281 21.3096C1.38902 20.5402 1.05901 19.5667 0.902344 18.3613C0.748193 17.1751 0.75 15.6544 0.75 13.7246V12.2041C0.75 11.0738 0.749407 10.1742 0.818359 9.44043C0.88874 8.69167 1.03549 8.05825 1.36133 7.46289C1.6879 6.86627 2.13994 6.40685 2.72852 5.95605C3.30366 5.51559 4.05208 5.05174 4.98828 4.4707L6.98828 3.22949C7.97778 2.61538 8.76762 2.12394 9.4502 1.79199C10.1482 1.45257 10.7919 1.25 11.5 1.25Z" stroke="#8A8A8A" strokeWidth="1.5"/>
</svg>
