<svg width="24" height="25" viewBox="0 0 24 25" fill="none" xmlns="http://www.w3.org/2000/svg">
<path fill-rule="evenodd" clip-rule="evenodd" d="M22.7987 23.2793C22.7987 23.5236 22.5894 23.7329 22.3451 23.7329C16.3091 23.7329 8.10978 23.7329 2.10859 23.7329C1.86436 23.7329 1.62012 23.5236 1.62012 23.2793C1.62012 23.0351 1.86436 22.7909 2.10859 22.7909H3.43443V7.89257C3.43443 7.68323 3.50423 7.54366 3.64379 7.47388L12.4362 2.62409C12.7502 2.44964 13.134 2.69387 13.134 3.00789V13.1262H20.5657C20.8449 13.1262 21.0542 13.3355 21.0542 13.5797V22.7909H22.38C22.5894 22.7909 22.7987 23.0351 22.7987 23.2793ZM20.147 22.7909V13.9984H12.6804C12.4362 13.9984 12.2269 13.7891 12.2269 13.5449V3.7057L4.3067 8.10191V22.7909H13.5876V19.3018C13.5876 17.8364 14.7739 16.6501 16.2044 16.6501C17.6698 16.6501 18.8561 17.8364 18.8561 19.3018V22.7909H20.147ZM17.9489 22.7909V19.3018C17.9489 18.29 17.1813 17.5224 16.2044 17.5224C15.2275 17.5224 14.4599 18.29 14.4599 19.3018V22.7909H17.9489Z" fill="#2B62B4"/>
<path fill-rule="evenodd" clip-rule="evenodd" d="M10.064 10.0207V12.2537C10.064 12.498 9.85464 12.7073 9.61041 12.7073H7.3774C7.13317 12.7073 6.92383 12.498 6.92383 12.2537V10.0556C6.92383 9.8114 7.13317 9.60205 7.3774 9.60205H9.61041C9.85464 9.60205 10.064 9.81139 10.064 10.0207ZM9.15684 10.4743H7.831V11.835H9.15684V10.4743Z" fill="#2B62B4"/>
<path fill-rule="evenodd" clip-rule="evenodd" d="M10.064 14.4521V16.6851C10.064 16.9293 9.85464 17.1387 9.61041 17.1387H7.3774C7.13317 17.1387 6.92383 16.9293 6.92383 16.6851V14.4521C6.92383 14.2079 7.13317 13.9985 7.3774 13.9985H9.61041C9.85464 13.9985 10.064 14.2079 10.064 14.4521ZM9.15684 14.8708H7.831V16.2315H9.15684V14.8708Z" fill="#2B62B4"/>
<path fill-rule="evenodd" clip-rule="evenodd" d="M10.064 18.8137V21.0467C10.064 21.2909 9.85464 21.5003 9.61041 21.5003H7.3774C7.13317 21.5003 6.92383 21.2909 6.92383 21.0467V18.8486C6.92383 18.6044 7.13317 18.395 7.3774 18.395H9.61041C9.85464 18.395 10.064 18.6044 10.064 18.8137ZM9.15684 19.3022H7.831V20.628H9.15684V19.3022Z" fill="#2B62B4"/>
</svg>
