<svg width="24" height="25" viewBox="0 0 24 25" fill="none" xmlns="http://www.w3.org/2000/svg">
<path d="M10.0376 6.29859L10.6866 7.46152C11.2723 8.51101 11.0372 9.88775 10.1147 10.8102C10.1147 10.8102 8.99578 11.9292 11.0245 13.9579C13.0532 15.9866 14.1722 14.8677 14.1722 14.8677C15.0947 13.9452 16.4714 13.7101 17.5209 14.2958L18.6838 14.9448C20.2686 15.8292 20.4557 18.0517 19.0628 19.4446C18.2258 20.2816 17.2004 20.9329 16.0669 20.9759C14.1588 21.0482 10.9183 20.5653 7.6677 17.3147C4.41713 14.0641 3.93421 10.8236 4.00655 8.91551C4.04952 7.78202 4.7008 6.75666 5.53781 5.91965C6.93076 4.5267 9.15317 4.71386 10.0376 6.29859Z" fill="#2B62B4"/>
</svg>
