<svg width="24" height="25" viewBox="0 0 24 25" fill="none" xmlns="http://www.w3.org/2000/svg">
<path d="M6.4873 5.23242H17.5127C17.706 5.23263 17.8955 5.28918 18.0576 5.39453C18.2196 5.49991 18.3481 5.64964 18.4268 5.82617L21.0303 11.6855L21.1621 11.9824H22.5C22.5663 11.9824 22.6299 12.0088 22.6768 12.0557C22.7236 12.1025 22.75 12.1661 22.75 12.2324C22.75 12.2987 22.7236 12.3623 22.6768 12.4092C22.6299 12.4561 22.5663 12.4824 22.5 12.4824H21.25V20.4824C21.2495 20.7475 21.1445 21.002 20.957 21.1895C20.7695 21.377 20.5143 21.4821 20.249 21.4824H18.001C17.7357 21.4821 17.4805 21.377 17.293 21.1895C17.1289 21.0254 17.0279 20.8099 17.0049 20.5811L17 20.4814V18.4824H7V20.4824C6.99955 20.7475 6.89447 21.002 6.70703 21.1895C6.51945 21.377 6.2643 21.4821 5.99902 21.4824H3.75098C3.4857 21.4821 3.23055 21.377 3.04297 21.1895C2.87892 21.0254 2.77791 20.8099 2.75488 20.5811L2.75 20.4814V12.4824H1.5C1.4337 12.4824 1.37013 12.4561 1.32324 12.4092C1.27636 12.3623 1.25 12.2987 1.25 12.2324C1.25 12.1661 1.27636 12.1025 1.32324 12.0557C1.37013 12.0088 1.4337 11.9824 1.5 11.9824H2.83789L2.96973 11.6855L5.57324 5.82617C5.65189 5.64964 5.78038 5.49991 5.94238 5.39453C6.06406 5.31546 6.20128 5.26396 6.34375 5.24316L6.4873 5.23242ZM6 13.9824C5.66848 13.9824 5.35063 14.1142 5.11621 14.3486C4.88179 14.5831 4.75 14.9009 4.75 15.2324C4.75 15.5639 4.88179 15.8818 5.11621 16.1162C5.35063 16.3506 5.66848 16.4824 6 16.4824H7.5C7.83152 16.4824 8.14937 16.3506 8.38379 16.1162C8.61821 15.8818 8.75 15.5639 8.75 15.2324C8.75 14.9009 8.61821 14.5831 8.38379 14.3486C8.14937 14.1142 7.83152 13.9824 7.5 13.9824H6ZM16.5 13.9824C16.1685 13.9824 15.8506 14.1142 15.6162 14.3486C15.3818 14.5831 15.25 14.9009 15.25 15.2324C15.25 15.5639 15.3818 15.8818 15.6162 16.1162C15.8506 16.3506 16.1685 16.4824 16.5 16.4824H18C18.3315 16.4824 18.6494 16.3506 18.8838 16.1162C19.1182 15.8818 19.25 15.5639 19.25 15.2324C19.25 14.9009 19.1182 14.5831 18.8838 14.3486C18.6494 14.1142 18.3315 13.9824 18 13.9824H16.5Z" stroke="#8A8A8A"/>
</svg>
