<svg width="24" height="25" viewBox="0 0 24 25" fill="none" xmlns="http://www.w3.org/2000/svg">
<g clip-path="url(#clip0_1_20981)">
<path d="M22 22.9824L2 22.9824" stroke="#8A8A8A" stroke-width="1.5" stroke-linecap="round"/>
<path d="M3 22.9825V12.3297C3 11.4728 3.36644 10.6567 4.00691 10.0874L10.0069 4.75411C11.1436 3.74375 12.8564 3.74375 13.9931 4.75411L19.9931 10.0874C20.6336 10.6567 21 11.4728 21 12.3297V22.9825" stroke="#8A8A8A" stroke-width="1.5" stroke-linecap="round"/>
<path d="M10 9.98242H14" stroke="#8A8A8A" stroke-width="1.5" stroke-linecap="round"/>
<path d="M9 16.4824H15" stroke="#8A8A8A" stroke-width="1.5" stroke-linecap="round"/>
<path d="M9 19.4824H15" stroke="#8A8A8A" stroke-width="1.5" stroke-linecap="round"/>
<path d="M18 22.9824V16.9824C18 15.0968 18 14.154 17.4142 13.5682C16.8284 12.9824 15.8856 12.9824 14 12.9824H10C8.11438 12.9824 7.17157 12.9824 6.58579 13.5682C6 14.154 6 15.0968 6 16.9824V22.9824" stroke="#8A8A8A" stroke-width="1.5"/>
</g>
<defs>
<clipPath id="clip0_1_20981">
<rect width="24" height="24" fill="white" transform="translate(0 0.482422)"/>
</clipPath>
</defs>
</svg>
