<svg width="18" height="14" viewBox="0 0 18 14" fill="none" xmlns="http://www.w3.org/2000/svg">
<path d="M4.83203 0.819336C5.88108 0.534466 6.96292 1.15403 7.24805 2.20312L7.39258 2.73535L7.24805 3.26855C7.06482 3.94226 6.538 4.46824 5.86426 4.65137C4.8152 4.93649 3.73357 4.31751 3.44824 3.26855L3.30273 2.73535L3.44824 2.20312C3.63139 1.52926 4.15817 1.00249 4.83203 0.819336Z" stroke="#2B62B4" strokeWidth="1.5"/>
<path d="M11.6396 9.29004C12.6884 9.00579 13.7691 9.62516 14.0537 10.6738L14.1982 11.207L14.0537 11.7402C13.8707 12.4143 13.344 12.9411 12.6699 13.124C11.6211 13.4085 10.5396 12.789 10.2549 11.7402L10.1094 11.207L10.2549 10.6738C10.4379 9.99956 10.9654 9.47296 11.6396 9.29004Z" stroke="#2B62B4" strokeWidth="1.5"/>
</svg>
