<svg width="24" height="24" viewBox="0 0 24 24" fill="none" xmlns="http://www.w3.org/2000/svg">
<path d="M20 12C20 16.4183 16.4183 20 12 20C7.58172 20 4 16.4183 4 12C4 7.58177 7.58172 4.00005 12 4.00005C16.4183 4.00005 20 7.58177 20 12Z" stroke="#2B62B4" strokeWidth="1.5"/>
<path d="M15 12C15 13.6569 13.6569 15 12 15C10.3431 15 9 13.6569 9 12C9 10.3431 10.3431 9 12 9C13.6569 9 15 10.3431 15 12Z" fill="#2B62B4" stroke="#2B62B4" strokeWidth="1.5"/>
<path d="M2 12L4 12" stroke="#2B62B4" strokeWidth="1.5" strokeLinecap="round"/>
<path d="M20 12L22 12" stroke="#2B62B4" strokeWidth="1.5" strokeLinecap="round"/>
<path d="M12 3.99995V1.99995" stroke="#2B62B4" strokeWidth="1.5" strokeLinecap="round"/>
<path d="M12 22V20" stroke="#2B62B4" strokeWidth="1.5" strokeLinecap="round"/>
</svg>
