<svg width="16" height="15" viewBox="0 0 16 15" fill="none" xmlns="http://www.w3.org/2000/svg">
<path fill-rule="evenodd" clip-rule="evenodd" d="M9.17811 5.27492C9.17811 5.8931 8.67032 6.37881 8.05214 6.37881C7.43396 6.37881 6.94824 5.8931 6.94824 5.27492C6.94824 4.65674 7.43396 4.17102 8.05214 4.17102C8.67032 4.17102 9.17811 4.65674 9.17811 5.27492ZM8.60409 5.27492C8.60409 4.96583 8.36123 4.72297 8.05214 4.72297C7.74305 4.72297 7.50019 4.96583 7.50019 5.27492C7.50019 5.58401 7.74305 5.82687 8.05214 5.82687C8.36123 5.82687 8.60409 5.58401 8.60409 5.27492Z" fill="#2B62B4"/>
<path fill-rule="evenodd" clip-rule="evenodd" d="M14.7198 13.0461C14.7198 13.2006 14.5874 13.3331 14.4328 13.3331C13.7926 13.3331 2.15749 13.3331 1.67178 13.3331C1.51723 13.3331 1.38477 13.2006 1.38477 13.0461C1.38477 12.8915 1.51723 12.7591 1.67178 12.7591H3.01854V6.0253L1.82632 6.79803C1.69386 6.88634 1.53931 6.84218 1.451 6.70972C1.36268 6.57725 1.40685 6.4227 1.53931 6.31231L3.151 5.29673L7.87568 1.74218C7.964 1.67595 8.11854 1.67595 8.20685 1.74218L10.812 3.68504V2.51491C10.812 2.36036 10.9445 2.2279 11.0991 2.2279H12.7549C12.9094 2.2279 13.0419 2.36036 13.0419 2.51491V5.34089L14.5874 6.33439C14.7198 6.4227 14.764 6.59933 14.6757 6.7318C14.6095 6.86426 14.4328 6.90842 14.3004 6.82011L13.1302 6.04738V12.7811H14.4549C14.5874 12.7811 14.7198 12.8915 14.7198 13.0461ZM9.73022 12.7591H12.5562V5.73829C12.5341 5.71621 12.512 5.67205 12.49 5.6279L8.07438 2.31621L3.59256 5.67205V12.7811H6.39646V7.79154C6.39646 7.63699 6.52893 7.50452 6.68347 7.50452H9.44321C9.59776 7.50452 9.73022 7.63699 9.73022 7.79154V12.7591ZM9.17827 8.05647H6.94841V12.7811H9.17827V8.05647ZM11.3861 4.08244L12.49 4.9214V2.80192H11.3861V4.08244Z" fill="#2B62B4"/>
</svg>
