<svg width="24" height="25" viewBox="0 0 24 25" fill="none" xmlns="http://www.w3.org/2000/svg">
<path fill-rule="evenodd" clip-rule="evenodd" d="M12 1.55273C12.4142 1.55273 12.75 1.88852 12.75 2.30273V3.30273C12.75 3.71695 12.4142 4.05273 12 4.05273C11.5858 4.05273 11.25 3.71695 11.25 3.30273V2.30273C11.25 1.88852 11.5858 1.55273 12 1.55273ZM4.39861 4.70134C4.6915 4.40845 5.16638 4.40845 5.45927 4.70134L5.85211 5.09418C6.145 5.38707 6.145 5.86195 5.85211 6.15484C5.55921 6.44773 5.08434 6.44773 4.79145 6.15484L4.39861 5.762C4.10572 5.46911 4.10572 4.99424 4.39861 4.70134ZM19.6011 4.7016C19.894 4.9945 19.894 5.46937 19.6011 5.76226L19.2083 6.1551C18.9154 6.44799 18.4405 6.44799 18.1476 6.1551C17.8547 5.86221 17.8547 5.38733 18.1476 5.09444L18.5405 4.7016C18.8334 4.40871 19.3082 4.40871 19.6011 4.7016ZM12 7.05273C9.1005 7.05273 6.75 9.40324 6.75 12.3027C6.75 15.2022 9.1005 17.5527 12 17.5527C14.8995 17.5527 17.25 15.2022 17.25 12.3027C17.25 9.40324 14.8995 7.05273 12 7.05273ZM5.25 12.3027C5.25 8.57481 8.27208 5.55273 12 5.55273C15.7279 5.55273 18.75 8.57481 18.75 12.3027C18.75 16.0307 15.7279 19.0527 12 19.0527C8.27208 19.0527 5.25 16.0307 5.25 12.3027ZM1.25 12.3027C1.25 11.8885 1.58579 11.5527 2 11.5527H3C3.41421 11.5527 3.75 11.8885 3.75 12.3027C3.75 12.7169 3.41421 13.0527 3 13.0527H2C1.58579 13.0527 1.25 12.7169 1.25 12.3027ZM20.25 12.3027C20.25 11.8885 20.5858 11.5527 21 11.5527H22C22.4142 11.5527 22.75 11.8885 22.75 12.3027C22.75 12.7169 22.4142 13.0527 22 13.0527H21C20.5858 13.0527 20.25 12.7169 20.25 12.3027ZM18.1476 18.4504C18.4405 18.1575 18.9154 18.1575 19.2083 18.4504L19.6011 18.8432C19.894 19.1361 19.894 19.611 19.6011 19.9039C19.3082 20.1968 18.8334 20.1968 18.5405 19.9039L18.1476 19.511C17.8547 19.2181 17.8547 18.7433 18.1476 18.4504ZM5.85211 18.4506C6.145 18.7435 6.145 19.2184 5.85211 19.5113L5.45927 19.9041C5.16638 20.197 4.6915 20.197 4.39861 19.9041C4.10572 19.6112 4.10572 19.1364 4.39861 18.8435L4.79145 18.4506C5.08434 18.1577 5.55921 18.1577 5.85211 18.4506ZM12 20.5527C12.4142 20.5527 12.75 20.8885 12.75 21.3027V22.3027C12.75 22.7169 12.4142 23.0527 12 23.0527C11.5858 23.0527 11.25 22.7169 11.25 22.3027V21.3027C11.25 20.8885 11.5858 20.5527 12 20.5527Z" fill="white"/>
</svg>
