<svg width="40" height="41" viewBox="0 0 40 41" fill="none" xmlns="http://www.w3.org/2000/svg">
<path d="M28.918 26.7148L32.2864 28.2487V35.5495H31.6548V28.608L28.918 27.4511V26.7148Z" fill="#2B62B4"/>
<path d="M11.8301 23.1367L7.19846 25.4505V35.5472H8.2511V25.8712L11.8301 23.9781V23.1367Z" fill="#2B62B4"/>
<path d="M19.2344 13.6729L20.9186 14.5142V35.549H20.287V14.9349L19.2344 14.4091V13.6729Z" fill="#2B62B4"/>
<path d="M18.1074 8.82654L25.7631 6.09961V19.9823H25.1315V6.941L18.7104 9.25483V35.5483L18.1074 35.5505V8.82654Z" fill="#2B62B4"/>
<path d="M18.1064 13.9902V35.5527H12.6523V10.4648L18.1064 13.9902ZM13.7422 33.3672V34.458H14.833V33.3672H13.7422ZM15.9258 34.458H17.0166V33.3672H15.9258V34.458ZM13.7422 32.2754H14.833V31.1846H13.7422V32.2754ZM15.9258 32.2754H17.0166V31.1846H15.9258V32.2754ZM15.9258 30.0967H17.0166V29.0059H15.9258V30.0967ZM13.7422 30.0957H14.833V26.8232H13.7422V30.0957ZM15.9258 27.9141H17.0166V26.8232H15.9258V27.9141ZM13.7422 25.7314H14.833V24.6406H13.7422V25.7314ZM15.9258 25.7314H17.0166V24.6406H15.9258V25.7314ZM13.7422 23.5527H14.833V22.4619H13.7422V23.5527ZM15.9258 23.5527H17.0166V22.4619H15.9258V23.5527ZM13.7422 21.373H14.833V20.2822H13.7422V21.373ZM15.9258 21.373H17.0166V20.2822H15.9258V21.373ZM13.7422 19.1895H14.833V18.0986H13.7422V19.1895ZM15.9258 19.1895H17.0166V18.0986H15.9258V19.1895ZM13.7422 17.0068H14.833V15.916H13.7422V17.0068ZM15.9258 17.0068H17.0166V15.916H15.9258V17.0068Z" fill="#2B62B4"/>
<path d="M28.9199 35.5498H23.2354V21.9912L28.9199 19.1426V35.5498ZM24.6523 34.459H25.7432V33.3682H24.6523V34.459ZM26.8359 33.3682V34.459H27.9268V33.3682H26.8359ZM24.6523 32.2764H25.7432V31.1855H24.6523V32.2764ZM26.8359 32.2764H27.9268V31.1855H26.8359V32.2764ZM24.6523 30.0977H25.7432V29.0068H24.6523V30.0977ZM26.8359 30.0977H27.9268V29.0068H26.8359V30.0977ZM24.6523 27.918H25.7432V26.8271H24.6523V27.918ZM26.8359 27.918H27.9268V26.8271H26.8359V27.918ZM24.6523 25.7344H25.7432V24.6436H24.6523V25.7344ZM26.8359 25.7344H27.9268V24.6436H26.8359V25.7344ZM24.6523 23.5518H25.7432V22.4609H24.6523V23.5518ZM26.8359 23.5518H27.9268V22.4609H26.8359V23.5518Z" fill="#2B62B4"/>
</svg>
