<svg width="12" height="12" viewBox="0 0 12 12" fill="none" xmlns="http://www.w3.org/2000/svg">
<path fill-rule="evenodd" clip-rule="evenodd" d="M10.5789 5.62762L10.474 6.74271C10.301 8.58006 10.2146 9.49873 9.67307 10.0527C9.13156 10.6066 8.31996 10.6066 6.69677 10.6066H5.45136C3.82817 10.6066 3.01657 10.6066 2.47505 10.0527C1.93354 9.49873 1.84708 8.58006 1.67415 6.7427L1.56921 5.62762C1.48678 4.75184 1.44557 4.31396 1.59539 4.13294C1.67643 4.03502 1.78664 3.97503 1.90447 3.96468C2.12229 3.94555 2.39583 4.25695 2.94292 4.87977C3.22585 5.20186 3.36732 5.36291 3.52514 5.38785C3.61258 5.40167 3.70168 5.38746 3.78242 5.34683C3.92815 5.27349 4.0253 5.0744 4.21962 4.67621L5.24387 2.57738C5.61106 1.82495 5.79466 1.44873 6.07406 1.44873C6.35347 1.44873 6.53707 1.82495 6.90426 2.57737L7.9285 4.67621C8.12282 5.07439 8.21998 5.27349 8.36571 5.34683C8.44645 5.38746 8.53555 5.40167 8.62299 5.38785C8.78081 5.36291 8.92228 5.20186 9.20521 4.87977C9.7523 4.25695 10.0258 3.94555 10.2437 3.96468C10.3615 3.97503 10.4717 4.03502 10.5527 4.13294C10.7026 4.31396 10.6613 4.75185 10.5789 5.62762ZM6.51014 6.34776L6.46513 6.26701C6.29113 5.95487 6.20413 5.7988 6.07406 5.7988C5.944 5.7988 5.857 5.95487 5.683 6.26701L5.63798 6.34776C5.58854 6.43646 5.56382 6.48081 5.52527 6.51007C5.48672 6.53933 5.43872 6.55019 5.3427 6.57192L5.25528 6.5917C4.9174 6.66815 4.74846 6.70637 4.70827 6.83562C4.66807 6.96487 4.78325 7.09955 5.01359 7.36891L5.07319 7.4386C5.13864 7.51514 5.17137 7.55341 5.1861 7.60076C5.20082 7.64811 5.19587 7.69917 5.18598 7.8013L5.17697 7.89427C5.14214 8.25366 5.12473 8.43335 5.22996 8.51323C5.33518 8.59311 5.49336 8.52028 5.80972 8.37462L5.89157 8.33694C5.98147 8.29554 6.02642 8.27485 6.07406 8.27485C6.12171 8.27485 6.16666 8.29554 6.25656 8.33694L6.33841 8.37462C6.65477 8.52028 6.81294 8.59311 6.91817 8.51323C7.0234 8.43335 7.00599 8.25366 6.97116 7.89427L6.96215 7.8013C6.95226 7.69917 6.94731 7.64811 6.96203 7.60076C6.97676 7.55341 7.00948 7.51514 7.07494 7.4386L7.13454 7.36891C7.36488 7.09955 7.48005 6.96487 7.43986 6.83562C7.39967 6.70637 7.23073 6.66815 6.89284 6.5917L6.80543 6.57192C6.70941 6.55019 6.66141 6.53933 6.62286 6.51007C6.58431 6.48081 6.55959 6.43646 6.51014 6.34776Z" fill="#F9AA00"/>
</svg>
