<svg width="12" height="13" viewBox="0 0 12 13" fill="none" xmlns="http://www.w3.org/2000/svg">
<path fill-rule="evenodd" clip-rule="evenodd" d="M10.9191 6.51189L10.8045 7.72951C10.6157 9.73581 10.5213 10.739 9.92995 11.3438C9.33864 11.9487 8.45242 11.9487 6.67996 11.9487H5.32004C3.54758 11.9487 2.66136 11.9487 2.07005 11.3438C1.47874 10.739 1.38433 9.73581 1.1955 7.72951L1.0809 6.51189C0.9909 5.55558 0.945898 5.07742 1.10949 4.87977C1.19799 4.77284 1.31833 4.70733 1.44699 4.69603C1.68484 4.67514 1.98354 5.01518 2.58093 5.69526C2.88988 6.04698 3.04436 6.22283 3.21669 6.25006C3.31217 6.26515 3.40946 6.24964 3.49763 6.20527C3.65676 6.12519 3.76285 5.90779 3.97504 5.47299L5.09347 3.18116C5.49442 2.35954 5.6949 1.94873 6 1.94873C6.3051 1.94873 6.50558 2.35954 6.90653 3.18116L8.02496 5.47299C8.23715 5.90779 8.34324 6.12519 8.50237 6.20527C8.59054 6.24964 8.68783 6.26515 8.78331 6.25006C8.95564 6.22283 9.11012 6.04698 9.41906 5.69526C10.0165 5.01518 10.3152 4.67514 10.553 4.69603C10.6817 4.70733 10.802 4.77284 10.8905 4.87977C11.0541 5.07742 11.0091 5.55558 10.9191 6.51189ZM6.47618 7.29824L6.42702 7.21006C6.23703 6.86923 6.14203 6.69881 6 6.69881C5.85797 6.69881 5.76297 6.86923 5.57297 7.21006L5.52382 7.29824C5.46983 7.3951 5.44283 7.44353 5.40074 7.47548C5.35865 7.50743 5.30623 7.51929 5.20138 7.54302L5.10593 7.56461C4.73698 7.64809 4.5525 7.68983 4.50861 7.83097C4.46472 7.97211 4.59049 8.11917 4.84201 8.4133L4.90709 8.48939C4.97856 8.57297 5.0143 8.61476 5.03038 8.66647C5.04646 8.71817 5.04105 8.77393 5.03025 8.88544L5.02041 8.98697C4.98238 9.3794 4.96337 9.57561 5.07827 9.66284C5.19318 9.75007 5.3659 9.67054 5.71135 9.51148L5.80072 9.47033C5.89889 9.42514 5.94797 9.40254 6 9.40254C6.05203 9.40254 6.10111 9.42514 6.19928 9.47033L6.28865 9.51148C6.6341 9.67054 6.80682 9.75007 6.92173 9.66284C7.03663 9.57561 7.01762 9.3794 6.97959 8.98697L6.96975 8.88544C6.95895 8.77393 6.95354 8.71817 6.96962 8.66647C6.9857 8.61476 7.02144 8.57297 7.09291 8.48939L7.15798 8.4133C7.40951 8.11917 7.53528 7.97211 7.49139 7.83097C7.4475 7.68983 7.26302 7.64809 6.89407 7.56461L6.79862 7.54302C6.69377 7.51929 6.64135 7.50743 6.59926 7.47548C6.55717 7.44353 6.53017 7.3951 6.47618 7.29824Z" fill="white"/>
</svg>
