<svg width="24" height="25" viewBox="0 0 24 25" fill="none" xmlns="http://www.w3.org/2000/svg">
<path d="M20.9951 14.9648C21.0206 15.06 21.0271 15.1592 21.0142 15.2568C21.0014 15.3545 20.9694 15.4487 20.9202 15.534C20.8709 15.6192 20.8053 15.694 20.7272 15.754C20.6491 15.8139 20.5599 15.8579 20.4647 15.8834L18.1156 16.5128L18.7451 18.8619C18.7707 18.957 18.7773 19.0563 18.7645 19.154C18.7517 19.2518 18.7198 19.346 18.6705 19.4314C18.6213 19.5167 18.5557 19.5916 18.4775 19.6516C18.3994 19.7116 18.3101 19.7556 18.2149 19.7811C18.1197 19.8066 18.0204 19.8131 17.9227 19.8002C17.825 19.7873 17.7308 19.7553 17.6455 19.706C17.5602 19.6567 17.4854 19.591 17.4255 19.5128C17.3655 19.4346 17.3216 19.3453 17.2962 19.25L16.553 16.4766L12.7509 14.2814V18.6718L14.7812 20.7021C14.9219 20.8427 15.0009 21.0335 15.0009 21.2324C15.0009 21.4313 14.9219 21.6221 14.7813 21.7628C14.6406 21.9034 14.4499 21.9824 14.251 21.9825C14.052 21.9825 13.8613 21.9035 13.7206 21.7628L12.0009 20.0431L10.2812 21.7628C10.1406 21.9035 9.9498 21.9825 9.75089 21.9825C9.55197 21.9824 9.3612 21.9034 9.22055 21.7628C9.07991 21.6221 9.00089 21.4313 9.0009 21.2324C9.00091 21.0335 9.07994 20.8427 9.2206 20.7021L11.2509 18.6718V14.2814L7.4488 16.4766L6.70565 19.25C6.65417 19.4422 6.52848 19.606 6.35621 19.7055C6.18395 19.8049 5.97924 19.8319 5.7871 19.7804C5.59496 19.7289 5.43114 19.6032 5.33168 19.431C5.23221 19.2587 5.20526 19.054 5.25673 18.8619L5.8862 16.5128L3.5371 15.8834C3.44187 15.858 3.35259 15.814 3.27436 15.7541C3.19613 15.6942 3.13047 15.6194 3.08115 15.5341C3.03183 15.4488 2.9998 15.3545 2.98691 15.2568C2.97402 15.1591 2.98051 15.0598 3.00602 14.9646C3.03152 14.8694 3.07554 14.7802 3.13555 14.702C3.19557 14.6239 3.2704 14.5583 3.35577 14.509C3.44114 14.4598 3.53538 14.4279 3.6331 14.4151C3.73082 14.4023 3.83011 14.4089 3.92528 14.4345L6.69885 15.1776L10.501 12.9824L6.69885 10.7873L3.92528 11.5304C3.83011 11.556 3.73083 11.5626 3.6331 11.5498C3.53538 11.537 3.44114 11.5051 3.35577 11.4558C3.2704 11.4066 3.19557 11.341 3.13555 11.2629C3.07554 11.1847 3.03152 11.0954 3.00602 11.0002C2.98051 10.905 2.97402 10.8058 2.98691 10.708C2.9998 10.6103 3.03183 10.5161 3.08115 10.4308C3.13047 10.3455 3.19613 10.2707 3.27436 10.2108C3.3526 10.1508 3.44188 10.1069 3.5371 10.0815L5.8862 9.45208L5.25673 7.10301C5.23113 7.00784 5.22454 6.90856 5.23734 6.81084C5.25013 6.71312 5.28206 6.61888 5.3313 6.5335C5.38054 6.44813 5.44612 6.3733 5.5243 6.31329C5.60247 6.25327 5.69171 6.20926 5.78691 6.18375C5.8821 6.15825 5.98139 6.15175 6.0791 6.16465C6.17681 6.17754 6.27102 6.20956 6.35634 6.25888C6.44167 6.3082 6.51643 6.37386 6.57637 6.45209C6.63631 6.53033 6.68023 6.61961 6.70565 6.71483L7.4488 9.48831L11.2509 11.6834V7.29313L9.2206 5.2628C9.07994 5.12216 9.00091 4.93139 9.0009 4.73247C9.00089 4.53355 9.07991 4.34278 9.22055 4.20212C9.3612 4.06146 9.55197 3.98243 9.75089 3.98242C9.9498 3.98241 10.1406 4.06142 10.2812 4.20207L12.0009 5.9218L13.7206 4.20207C13.7902 4.13243 13.8729 4.07719 13.9639 4.0395C14.0549 4.00181 14.1525 3.98242 14.251 3.98242C14.3494 3.98243 14.447 4.00183 14.538 4.03953C14.629 4.07722 14.7116 4.13247 14.7813 4.20212C14.8509 4.27177 14.9062 4.35445 14.9439 4.44545C14.9815 4.53645 15.0009 4.63398 15.0009 4.73247C15.0009 4.83097 14.9815 4.92849 14.9438 5.01949C14.9061 5.11048 14.8509 5.19316 14.7812 5.2628L12.7509 7.29313V11.6834L16.553 9.4883L17.2962 6.71483C17.3217 6.61969 17.3657 6.5305 17.4256 6.45236C17.4856 6.37422 17.5603 6.30866 17.6456 6.25941C17.7309 6.21016 17.8251 6.17819 17.9227 6.16533C18.0204 6.15247 18.1196 6.15897 18.2147 6.18446C18.3099 6.20995 18.3991 6.25393 18.4772 6.31389C18.5553 6.37384 18.6209 6.4486 18.6702 6.5339C18.7194 6.61919 18.7514 6.71335 18.7642 6.811C18.7771 6.90865 18.7706 7.00788 18.7451 7.10301L18.1156 9.45207L20.4647 10.0815C20.56 10.1069 20.6492 10.1508 20.7275 10.2108C20.8057 10.2707 20.8714 10.3455 20.9207 10.4308C20.97 10.5161 21.002 10.6103 21.0149 10.708C21.0278 10.8058 21.0213 10.905 20.9958 11.0002C20.9703 11.0954 20.9263 11.1847 20.8663 11.2628C20.8063 11.341 20.7314 11.4066 20.6461 11.4558C20.5607 11.5051 20.4665 11.537 20.3687 11.5498C20.271 11.5626 20.1717 11.556 20.0766 11.5304L17.303 10.7873L13.5009 12.9824L17.303 15.1776L20.0766 14.4345C20.2687 14.383 20.4734 14.41 20.6457 14.5094C20.8179 14.6089 20.9436 14.7727 20.9951 14.9648Z" fill="#7D7F88"/>
</svg>
