<svg width="24" height="25" viewBox="0 0 24 25" fill="none" xmlns="http://www.w3.org/2000/svg">
<path d="M20.5001 6.30273H3.5" stroke="#2F2F2F" strokeWidth="1.5" strokeLinecap="round"/>
<path d="M18.8337 8.80273L18.3737 15.7018C18.1967 18.3568 18.1082 19.6842 17.2432 20.4935C16.3782 21.3027 15.0478 21.3027 12.387 21.3027H11.6136C8.95284 21.3027 7.62244 21.3027 6.75743 20.4935C5.89242 19.6842 5.80393 18.3568 5.62693 15.7018L5.16699 8.80273" stroke="#2F2F2F" strokeWidth="1.5" strokeLinecap="round"/>
<path d="M6.5 6.30273C6.55588 6.30273 6.58382 6.30273 6.60915 6.30209C7.43259 6.28122 8.15902 5.75764 8.43922 4.98305C8.44784 4.95923 8.45667 4.93272 8.47434 4.87971L8.57143 4.58845C8.65431 4.33981 8.69575 4.21549 8.75071 4.10993C8.97001 3.68881 9.37574 3.39637 9.84461 3.3215C9.96213 3.30273 10.0932 3.30273 10.3553 3.30273H13.6447C13.9068 3.30273 14.0379 3.30273 14.1554 3.3215C14.6243 3.39637 15.03 3.68881 15.2493 4.10993C15.3043 4.21549 15.3457 4.33981 15.4286 4.58845L15.5257 4.87971C15.5433 4.93265 15.5522 4.95924 15.5608 4.98305C15.841 5.75764 16.5674 6.28122 17.3909 6.30209C17.4162 6.30273 17.4441 6.30273 17.5 6.30273" stroke="#2F2F2F" strokeWidth="1.5"/>
</svg>
