<svg width="24" height="25" viewBox="0 0 24 25" fill="none" xmlns="http://www.w3.org/2000/svg">
<g clip-path="url(#clip0_1_20960)">
<path d="M10 18.8157C10 21.1169 8.20914 22.9824 6 22.9824C3.79086 22.9824 2 21.1169 2 18.8157C2 17.3759 3.56593 15.4542 4.73823 14.2173C5.43222 13.485 6.56778 13.485 7.26177 14.2173C8.43407 15.4542 10 17.3759 10 18.8157Z" stroke="#8A8A8A" stroke-width="1.5"/>
<path d="M22 18.8157C22 21.1169 20.2091 22.9824 18 22.9824C15.7909 22.9824 14 21.1169 14 18.8157C14 17.3759 15.5659 15.4542 16.7382 14.2173C17.4322 13.485 18.5678 13.485 19.2618 14.2173C20.4341 15.4542 22 17.3759 22 18.8157Z" stroke="#8A8A8A" stroke-width="1.5"/>
<path d="M16 8.81573C16 11.1169 14.2091 12.9824 12 12.9824C9.79086 12.9824 8 11.1169 8 8.81573C8 7.37591 9.56593 5.45419 10.7382 4.21727C11.4322 3.48503 12.5678 3.48503 13.2618 4.21727C14.4341 5.45419 16 7.37591 16 8.81573Z" stroke="#8A8A8A" stroke-width="1.5"/>
</g>
<defs>
<clipPath id="clip0_1_20960">
<rect width="24" height="24" fill="white" transform="translate(0 0.482422)"/>
</clipPath>
</defs>
</svg>
