<svg width="30" height="31" viewBox="0 0 30 31" fill="none" xmlns="http://www.w3.org/2000/svg">
<path d="M15.2817 5.49414C9.54785 5.49414 4.88281 10.2757 4.88281 16.153C4.88281 18.4875 5.6205 20.6487 6.86535 22.4028L5.56601 26.3615L9.56042 25.0535C11.1993 26.1622 13.1692 26.8119 15.2817 26.8119C21.0114 26.8119 25.6764 22.0304 25.6764 16.153C25.6764 10.2757 21.0114 5.49414 15.2817 5.49414Z" fill="url(#paint0_linear_1_20920)"/>
<path fill-rule="evenodd" clip-rule="evenodd" d="M27 16.0619C27 22.7318 21.723 28.1414 15.218 28.1414C13.1516 28.1414 11.211 27.5957 9.52602 26.6385L3 28.7824L5.12924 22.2987C4.05623 20.4797 3.43591 18.3444 3.43591 16.0619C3.43591 9.39199 8.71289 3.98242 15.218 3.98242C21.723 3.98242 27 9.39199 27 16.0619ZM15.218 5.90977C9.75655 5.90977 5.31366 10.4618 5.31366 16.0619C5.31366 18.2838 6.01362 20.3411 7.19979 22.0172L5.96333 25.7896L9.76912 24.5379C11.3325 25.599 13.2061 26.2184 15.218 26.2184C20.6794 26.2184 25.1222 21.6621 25.1222 16.0619C25.1222 10.4618 20.6794 5.90977 15.218 5.90977ZM20.9979 20.2544C20.759 20.9431 19.577 21.6101 19.0489 21.6621C18.5208 21.7097 18.5208 22.1038 15.5826 20.9214C12.6486 19.7347 10.796 16.6466 10.6493 16.4517C10.5068 16.2525 9.47153 14.8449 9.47153 13.3896C9.47153 11.93 10.2176 11.2154 10.4817 10.9209C10.7457 10.622 11.3241 10.5484 11.3241 10.5484C11.3241 10.5484 11.6385 10.4964 11.8061 10.4964C11.9738 10.4964 12.2169 10.4748 12.4558 11.0681C12.6947 11.6615 13.2731 13.1168 13.3444 13.264C13.4198 13.4113 13.4659 13.5845 13.3695 13.7837C13.2731 13.983 13.227 14.1043 13.0803 14.2775C12.9378 14.4507 12.7786 14.663 12.6486 14.7972C12.5061 14.9445 12.3552 15.1047 12.5229 15.3993C12.6905 15.6981 13.2689 16.6639 14.1282 17.4522C15.2305 18.457 16.161 18.7732 16.4502 18.9205C16.7394 19.0677 16.9071 19.0417 17.0747 18.8468C17.2424 18.6476 17.7999 17.9806 17.9927 17.6861C18.1813 17.3872 18.3741 17.4392 18.6423 17.5388C18.9064 17.6341 20.3231 18.3531 20.6123 18.5003C20.9015 18.6476 21.0943 18.7212 21.1656 18.8468C21.241 18.9681 21.241 19.5615 20.9979 20.2544Z" fill="white"/>
<defs>
<linearGradient id="paint0_linear_1_20920" x1="25.5129" y1="5.49414" x2="25.5129" y2="26.8119" gradientUnits="userSpaceOnUse">
<stop stop-color="#4AC14B"/>
<stop offset="1" stop-color="#06853A"/>
</linearGradient>
</defs>
</svg>
