<svg width="24" height="25" viewBox="0 0 24 25" fill="none" xmlns="http://www.w3.org/2000/svg">
<path d="M16.0717 18.51C15.866 18.7705 15.5644 18.9076 15.2628 18.9076C15.0435 18.9076 14.8241 18.839 14.6322 18.6882C13.1789 17.564 11.3007 17.564 9.8475 18.6882C9.39508 19.031 8.75073 18.9487 8.40799 18.51C8.06524 18.0576 8.1475 17.4132 8.58621 17.0705C10.766 15.3842 13.6999 15.3842 15.8797 17.0705C16.3459 17.4132 16.4281 18.0576 16.0717 18.51ZM19.1015 14.2737C18.8959 14.5342 18.5942 14.6713 18.2926 14.6713C18.0733 14.6713 17.8539 14.6028 17.662 14.452C14.3717 11.9157 10.1354 11.9157 6.84509 14.452C6.39267 14.8084 5.74832 14.7261 5.39186 14.2737C5.03541 13.8213 5.13138 13.177 5.57009 12.8342C9.61443 9.70842 14.8515 9.70842 18.8959 12.8342C19.362 13.177 19.4442 13.8213 19.1015 14.2737ZM21.2813 10.0375C21.0757 10.2979 20.7741 10.435 20.4725 10.435C20.2531 10.435 20.0338 10.3665 19.8418 10.2157C15.2217 6.65117 9.25798 6.65117 4.65154 10.2157C4.19913 10.5584 3.55477 10.4762 3.21203 10.0375C2.86929 9.58503 2.95155 8.94068 3.39026 8.59794C8.76444 4.44392 15.7152 4.44392 21.1031 8.59794C21.5555 8.94068 21.6378 9.58503 21.2813 10.0375Z" fill="#7D7F88"/>
</svg>
